<?xml version="1.0" encoding="UTF-8" standalone="no"?>
<svg
   xmlns:dc="http://purl.org/dc/elements/1.1/"
   xmlns:cc="http://creativecommons.org/ns#"
   xmlns:rdf="http://www.w3.org/1999/02/22-rdf-syntax-ns#"
   xmlns:svg="http://www.w3.org/2000/svg"
   xmlns="http://www.w3.org/2000/svg"
   xmlns:sodipodi="http://sodipodi.sourceforge.net/DTD/sodipodi-0.dtd"
   xmlns:inkscape="http://www.inkscape.org/namespaces/inkscape"
   sodipodi:docname="logo.svg"
   inkscape:version="1.0beta2 (2b71d25, 2019-12-03)"
   id="svg8"
   version="1.1"
   viewBox="0 0 297 210"
   height="210mm"
   width="297mm">
  <defs
     id="defs2" />
  <sodipodi:namedview
     inkscape:window-maximized="0"
     inkscape:window-y="23"
     inkscape:window-x="0"
     inkscape:window-height="755"
     inkscape:window-width="1280"
     showgrid="false"
     inkscape:document-rotation="0"
     inkscape:current-layer="layer1"
     inkscape:document-units="mm"
     inkscape:cy="523.4372"
     inkscape:cx="405.63001"
     inkscape:zoom="0.43272402"
     inkscape:pageshadow="2"
     inkscape:pageopacity="0.0"
     borderopacity="1.0"
     bordercolor="#666666"
     pagecolor="#ffffff"
     id="base" />
  <metadata
     id="metadata5">
    <rdf:RDF>
      <cc:Work
         rdf:about="">
        <dc:format>image/svg+xml</dc:format>
        <dc:type
           rdf:resource="http://purl.org/dc/dcmitype/StillImage" />
        <dc:title></dc:title>
      </cc:Work>
    </rdf:RDF>
  </metadata>
  <g
     id="layer1"
     inkscape:groupmode="layer"
     inkscape:label="Calque 1">
    <path
       inkscape:connector-curvature="0"
       id="path24"
       d="m 229.83813,154.16992 c -2.03949,-0.27068 -4.92903,-1.23549 -8.06597,-2.69318 -1.24941,-0.58057 -2.33899,-1.0556 -2.42129,-1.0556 -0.46962,0 -3.64613,-2.31086 -4.47648,-3.25657 -2.65795,-3.02724 -1.19271,-8.2516 3.08414,-10.99658 1.82963,-1.17432 3.96865,-1.77089 5.51697,-1.53871 1.73811,0.26065 2.59488,0.95219 2.87469,2.32034 0.25107,1.22751 -0.23665,3.13569 -0.80144,3.13569 -0.20764,0 -0.50454,0.22684 -0.6597,0.5041 -0.25722,0.45962 -0.29983,0.45787 -0.48316,-0.0207 -0.1107,-0.28819 -0.32823,-0.44538 -0.48367,-0.34931 -0.15542,0.0962 -0.36341,-0.036 -0.46217,-0.29334 -0.23403,-0.60985 -2.30183,-0.62006 -3.51812,-0.0167 -0.5002,0.24785 -1.30063,0.59809 -1.7788,0.77833 -1.88495,0.71053 -1.40906,2.24231 1.24344,4.00221 1.86652,1.23841 2.25827,1.44493 4.95043,2.60964 4.97987,2.15445 6.01483,2.33845 13.15469,2.33845 4.59373,0 6.04374,-0.11149 7.83018,-0.60233 3.19761,-0.87849 4.03947,-1.29202 8.45592,-4.15378 2.44842,-1.58653 2.58206,-1.63139 5.78431,-1.94214 1.80289,-0.17498 3.35326,-0.24114 3.44528,-0.1471 0.46913,0.47966 -5.67153,5.12269 -6.775,5.12269 -0.37759,0 -0.89794,0.21143 -1.15635,0.46981 -0.25838,0.25841 -0.79744,0.46982 -1.19789,0.46982 -0.40045,0 -1.43237,0.50782 -2.29312,1.1285 -2.48672,1.79308 -5.51146,2.9825 -10.33484,4.06392 -1.35931,0.30478 -9.40864,0.39094 -11.43205,0.12234 z M 116.4572,152.10763 c -6.69543,-0.51754 -12.99491,-1.9089 -16.17929,-3.57351 -2.29362,-1.199 -4.492348,-2.77265 -4.49237,-3.21527 0,-0.13608 -0.302956,-0.65736 -0.673243,-1.15818 -1.686663,-2.28134 0.689915,-9.20649 3.551334,-10.34829 0.570345,-0.22758 1.422249,-0.679 1.893119,-1.00314 2.25118,-1.54973 7.5998,0.0455 7.57849,2.26048 -0.002,0.26075 -0.25739,0.85549 -0.56639,1.32164 -0.30902,0.46615 -0.47092,0.99469 -0.35977,1.17452 0.3055,0.49433 -1.55641,0.40131 -2.85866,-0.14293 -1.49548,-0.62484 -2.07879,-0.59395 -3.64436,0.19307 -2.051188,1.03117 -2.469362,1.50809 -2.23959,2.5542 0.19901,0.90602 2.01122,3.04704 2.57912,3.04704 0.16552,0 0.46213,0.19411 0.65911,0.43153 0.30922,0.37258 2.12672,1.07693 6.21411,2.40816 1.81684,0.59173 8.27937,1.14226 12.92328,1.1009 5.52298,-0.0493 12.07227,-0.87637 13.76118,-1.73797 0.66841,-0.34099 1.82722,-0.71381 2.57515,-0.82844 0.74792,-0.11465 1.73823,-0.39914 2.20071,-0.63217 0.46798,-0.23583 2.48174,-0.5169 4.54149,-0.63389 3.42371,-0.19453 3.66859,-0.17123 3.27201,0.30922 -0.23576,0.28568 -1.01095,0.68412 -1.72265,0.88541 -0.71167,0.2014 -1.43491,0.52688 -1.60718,0.72352 -0.17227,0.19661 -1.22933,0.90634 -2.34905,1.57709 -1.1197,0.67076 -2.24725,1.37857 -2.50565,1.57294 -0.25838,0.19433 -1.10405,0.53316 -1.87924,0.75294 -0.7752,0.21979 -1.55167,0.51506 -1.72551,0.65621 -0.17392,0.14106 -2.71081,0.71549 -5.63772,1.27634 -5.11591,0.98034 -9.52399,1.32097 -13.30843,1.02846 z M 13.020586,150.51845 c -0.30146,-0.0789 -0.548112,-0.34432 -0.548112,-0.59007 0,-0.24578 -0.117386,-0.44685 -0.260862,-0.44685 -0.465819,0 -0.190352,-1.21141 0.781321,-3.43587 0.284365,-0.65099 0.466527,-1.96296 0.454273,-3.27173 -0.01935,-2.07497 0.665301,-5.61595 1.216409,-6.29049 0.14073,-0.17227 0.350569,-1.01791 0.46629,-1.87923 0.115722,-0.86134 0.638817,-2.97548 1.162439,-4.69812 0.523627,-1.72264 1.002185,-3.90726 1.063466,-4.85472 0.117304,-1.8135 0.417753,-4.42554 0.630474,-5.48112 0.454441,-2.25503 0.979859,-4.45369 1.160122,-4.8547 0.675474,-1.50259 2.193953,-7.27857 2.552561,-9.70941 0.114349,-0.77518 0.33904,-1.76179 0.499293,-2.19245 0.160245,-0.43065 0.341896,-1.0649 0.403656,-1.40944 0.112727,-0.62891 0.351155,-1.34124 0.838664,-2.505654 0.144246,-0.344523 0.342862,-1.120785 0.441364,-1.725024 0.09849,-0.604262 0.504296,-1.731807 0.901754,-2.505656 0.397463,-0.77387 0.984849,-2.499351 1.3053,-3.834387 0.320452,-1.335041 0.681677,-2.427342 0.802718,-2.427342 0.121048,0 0.40121,-0.669487 0.622591,-1.487734 0.22138,-0.818248 0.496198,-1.628674 0.6107,-1.800945 0.114515,-0.172271 0.388067,-0.947451 0.607915,-1.722631 0.21985,-0.775201 0.597596,-1.872287 0.839436,-2.437995 0.241839,-0.565687 0.439709,-1.178811 0.439709,-1.362463 0,-0.400678 2.078756,-4.628402 3.693746,-7.512268 0.638529,-1.140196 1.498507,-2.689765 1.911065,-3.443453 1.162636,-2.124015 4.947214,-7.594405 5.823688,-8.417812 0.432613,-0.406419 0.786573,-0.853701 0.786573,-0.993973 0,-0.140231 0.202752,-0.503291 0.450543,-0.806722 0.247795,-0.30343 0.917276,-1.12018 1.487732,-1.814988 1.308616,-1.593906 5.5226,-5.470659 5.946526,-5.470659 0.175164,0 0.741348,-0.301101 1.258183,-0.669112 0.599201,-0.426684 1.411144,-0.668301 2.2408,-0.666866 0.715603,0.0012 1.579109,-0.190996 1.918903,-0.4271 1.382601,-0.960892 6.756861,-0.08447 9.10703,1.484968 1.528993,1.021124 4.557264,4.852458 5.722497,7.240062 0.962448,1.972071 2.24195,6.828316 2.415601,9.168212 0.326607,4.400891 0.826028,9.610963 1.041186,10.861845 0.301531,1.753029 0.14254,8.42807 -0.263513,11.062637 -0.159289,1.033587 -0.374256,2.893323 -0.477684,4.132762 -0.103428,1.239439 -0.614518,3.705937 -1.135748,5.481124 -1.118182,3.808224 -1.862068,6.478994 -1.997178,7.170424 -0.05347,0.27366 -0.24059,1.04884 -0.415813,1.72265 -0.175226,0.6738 -0.556212,2.4231 -0.846634,3.88735 -0.290424,1.46422 -0.743882,3.35958 -1.00769,4.21189 -0.263808,0.8523 -0.502487,1.76842 -0.530404,2.03584 -0.40422,3.87234 -1.382244,9.49632 -1.708101,9.82218 -0.414182,0.41417 -1.881874,-0.67251 -1.760377,-1.3034 0.05695,-0.29568 0.196697,-1.3783 0.310594,-2.40583 0.11389,-1.02755 0.287086,-2.28832 0.384887,-2.80175 0.153255,-0.80446 0.112747,-0.87945 -0.293096,-0.54264 -0.259003,0.21496 -0.560771,1.05787 -0.670594,1.87309 -0.506093,3.75687 -0.905341,4.71682 -0.671584,1.61478 0.18721,-2.48446 0.70689,-6.57484 0.966966,-7.6111 0.175704,-0.70005 0.110642,-0.76246 -0.695272,-0.66698 -0.489014,0.0578 -1.593832,0.13981 -2.455151,0.18225 -0.861321,0.0422 -1.706978,0.17685 -1.879243,0.29921 -0.392482,0.27861 -3.506962,0.58961 -8.769795,0.87573 -2.239429,0.12172 -4.222566,0.31744 -4.406966,0.43489 -0.184402,0.11734 -1.805247,0.0774 -3.601881,-0.0886 -1.796633,-0.16624 -4.499857,-0.36491 -6.007166,-0.4415 -1.507309,-0.0766 -3.057683,-0.16436 -3.445278,-0.19516 -0.387592,-0.0308 -1.1497,0.0493 -1.693572,0.17789 -0.85518,0.20203 -1.062594,0.12109 -1.534293,-0.59874 -0.342652,-0.52296 -0.435339,-0.94255 -0.249305,-1.12857 0.359396,-0.3594 2.93721,-0.43709 5.904525,-0.17789 4.568475,0.39895 9.31372,0.48862 9.87798,0.18663 0.317759,-0.16998 2.312559,-0.36348 4.432885,-0.42981 2.279972,-0.0714 4.495007,-0.32049 5.421176,-0.60983 0.861319,-0.2691 2.96156,-0.63027 4.667204,-0.8026 1.70564,-0.17228 3.238067,-0.45024 3.405395,-0.61756 0.196843,-0.19682 0.567546,-0.18434 1.050149,0.0356 0.410255,0.18683 0.837068,0.24871 0.948472,0.13731 0.111398,-0.1113 0.44426,-1.57896 0.73968,-3.26123 0.295416,-1.68229 0.827213,-4.11577 1.181763,-5.40776 2.040685,-7.436222 2.568872,-9.943438 2.912002,-13.822868 0.367912,-4.159607 0.227611,-11.190822 -0.314772,-15.775177 -0.576695,-4.874351 -1.016255,-7.878698 -1.283082,-8.769808 -0.154752,-0.516772 -0.357939,-1.633167 -0.451533,-2.480876 -0.09361,-0.847687 -0.367265,-1.763806 -0.608151,-2.035841 -0.240881,-0.272013 -0.735276,-1.133267 -1.09865,-1.913877 -0.997025,-2.141825 -4.034563,-5.126304 -5.845435,-5.74334 -1.860212,-0.633825 -2.293233,-0.636302 -3.528296,-0.02081 -0.541062,0.269932 -1.111721,0.411683 -1.268128,0.315019 -0.156397,-0.09674 -0.365194,0.03496 -0.463969,0.292258 -0.09878,0.257388 -0.484503,0.468005 -0.857169,0.468005 -1.199388,0 -3.041786,1.331045 -6.509654,4.702948 -0.622827,0.605613 -2.119018,2.492485 -3.324864,4.193063 -1.205846,1.700597 -2.382352,3.28768 -2.614457,3.526863 -0.77636,0.800021 -3.086705,4.324803 -3.321732,5.067822 -0.127728,0.403756 -0.641352,1.340327 -1.141405,2.08126 -0.500051,0.740934 -0.911345,1.467657 -0.913988,1.614941 -0.0025,0.147304 -0.707359,1.65882 -1.566035,3.358981 -0.858677,1.700162 -1.561231,3.347914 -1.561231,3.661684 0,0.313772 -0.123607,0.646893 -0.274683,0.740248 -0.151071,0.09342 -0.434882,0.805972 -0.63068,1.583545 -0.195804,0.777594 -0.776903,2.242089 -1.291348,3.254454 -0.514448,1.012365 -0.935359,2.001324 -0.935359,2.197668 0,0.196405 -0.135237,0.601764 -0.300551,0.900881 -0.165301,0.299125 -0.43801,1.178104 -0.606017,1.953284 -0.168006,0.775181 -0.891409,3.241699 -1.607559,5.481104 -0.716152,2.239449 -1.424926,4.705949 -1.575059,5.481129 -0.37712,1.94721 -1.615544,6.64085 -2.933722,11.11885 -0.608506,2.06715 -1.109545,4.26114 -1.113424,4.87549 -0.0089,1.43025 -0.461213,4.02117 -1.390282,7.96599 -0.405709,1.72263 -0.976457,4.22126 -1.268324,5.55252 -0.291873,1.33123 -0.785164,2.95207 -1.09621,3.60185 -0.311042,0.64981 -0.660006,1.95664 -0.775476,2.90409 -0.115471,0.94745 -0.33635,2.00453 -0.490848,2.34905 -0.573353,1.27858 -1.563256,5.11089 -1.563256,6.05199 0,0.64156 -0.206413,1.08361 -0.605823,1.29737 -0.333204,0.1783 -0.650325,0.30786 -0.704718,0.28788 -0.05439,-0.0207 -0.345541,-0.10066 -0.647004,-0.17955 z m 12.576173,-8.65868 c -0.55144,-0.5919 -0.553815,-0.64858 -0.04211,-1.00345 0.298286,-0.20681 1.035636,-0.4581 1.638562,-0.55829 0.602923,-0.10033 1.941882,-0.32397 2.975465,-0.49726 1.033583,-0.17331 5.120934,-0.40089 9.083003,-0.50579 3.962069,-0.10484 8.401777,-0.25387 9.86602,-0.33104 1.464243,-0.0772 2.803202,-0.13919 2.975468,-0.13774 2.256712,0.0187 12.894533,0.37143 15.033934,0.49877 3.800416,0.22617 3.651084,0.2244 12.371685,0.14668 7.688479,-0.0684 9.033397,0.0383 10.155013,0.80594 0.698336,0.47796 0.620497,0.5205 -2.011634,1.09959 -2.200565,0.48413 -16.532747,0.81898 -21.454686,0.50123 -6.062876,-0.39138 -25.206374,-0.33027 -31.320698,0.10011 -8.556322,0.60212 -8.598922,0.60158 -9.270015,-0.1188 z m 81.353401,-0.0453 c -0.11239,-0.29298 -0.13563,-0.64401 -0.0515,-0.78004 0.32859,-0.53166 3.39489,-1.27398 5.86563,-1.42002 1.4282,-0.0844 3.65381,-0.27242 4.94579,-0.4178 3.61206,-0.40646 20.84409,-0.61189 31.32069,-0.3734 1.29198,0.0293 3.2652,-0.0233 4.38492,-0.11692 3.92471,-0.32854 16.26427,-0.57543 16.82083,-0.33656 0.30917,0.13274 3.94478,0.30158 8.07911,0.37527 10.9089,0.19454 10.69906,0.19475 17.69619,-0.0325 14.28657,-0.46401 14.38835,-0.45614 14.40273,1.11375 0.008,0.86635 -1.73333,1.16237 -6.88577,1.17066 -2.67007,0.005 -5.20704,0.0843 -5.6377,0.17768 -1.10602,0.23983 -15.4937,0.23523 -17.383,-0.007 -0.86132,-0.10991 -3.32782,-0.27248 -5.48113,-0.36154 -2.15329,-0.0891 -4.12648,-0.27302 -4.38489,-0.40873 -0.25839,-0.13566 -1.24499,-0.13212 -2.19244,0.008 -0.94746,0.14002 -4.11868,0.33487 -7.04715,0.43278 -2.9285,0.098 -5.74736,0.24461 -6.26416,0.32597 -1.23881,0.19495 -6.14992,0.19016 -11.58866,-0.0125 -8.64898,-0.32069 -25.4566,-0.0487 -27.71881,0.44849 -0.77519,0.1704 -3.04446,0.40766 -5.04281,0.52726 -3.2532,0.19475 -3.65479,0.16166 -3.83781,-0.31524 z m 126.13597,-0.40993 c -1.98524,-0.0706 -2.65989,-0.21584 -3.06167,-0.65981 -0.47854,-0.52878 -0.4778,-0.60062 0.0101,-1.00588 0.4072,-0.33801 1.98011,-0.44774 6.97676,-0.48669 3.54807,-0.0276 7.43763,-0.14875 8.6435,-0.2693 1.20583,-0.12046 2.96762,-0.17124 3.91507,-0.11277 3.40224,0.20978 15.89485,-0.0187 19.73205,-0.36206 3.41597,-0.30503 7.55442,-0.41676 12.13677,-0.32767 1.16546,0.0227 1.33054,0.1136 1.32633,0.73059 -0.0101,1.48131 -0.36065,1.62272 -4.21291,1.69939 -1.99361,0.0398 -3.76291,0.1575 -3.93181,0.26194 -0.16894,0.1045 -0.48077,0.0824 -0.69308,-0.0487 -0.55083,-0.34045 -0.80961,-0.34254 -7.01456,-0.0566 -3.07865,0.1419 -10.95335,0.32416 -17.49939,0.40503 -6.54603,0.0809 -12.32469,0.18663 -12.84149,0.23498 -0.51678,0.0485 -2.08546,0.0472 -3.48594,-0.002 z m -84.52768,-4.76834 c -0.087,-0.14065 0.3361,-0.56111 0.94006,-0.93439 1.53343,-0.9477 3.01972,-2.86193 4.50784,-5.80569 1.29839,-2.56849 1.425,-3.01556 1.33814,-4.725 -0.0814,-1.59911 -2.84393,-4.89765 -4.92877,-5.88476 -1.8327,-0.86774 -3.96154,-1.49518 -4.98687,-1.4698 -0.34455,0.008 -1.04925,-0.11339 -1.56605,-0.27112 -0.51679,-0.15771 -1.92621,-0.3683 -3.13207,-0.46813 -4.67465,-0.38696 -5.96311,-0.59941 -7.90289,-1.303 -5.11907,-1.85676 -6.58286,-5.05535 -5.24098,-11.45226 1.04039,-4.959588 3.64435,-7.701451 8.56372,-9.017226 2.01507,-0.538973 8.0029,-0.431011 9.8344,0.177264 2.34251,0.778052 4.29858,1.980228 4.29858,2.641851 0,0.319637 0.12025,0.655526 0.26735,0.746384 0.29538,0.182467 -0.21659,3.693867 -0.57497,3.943437 -0.12358,0.0861 -0.29134,0.36308 -0.37258,0.61547 -0.10608,0.32977 -0.67008,0.46761 -2.00451,0.49 -1.60733,0.027 -2.04616,-0.10237 -3.26624,-0.96185 -0.77518,-0.54613 -2.07891,-1.24385 -2.89715,-1.55046 -0.81827,-0.30664 -1.48773,-0.74978 -1.48773,-0.98476 0,-0.684613 -3.52223,-0.562005 -4.94551,0.17206 -2.08633,1.07618 -4.37114,4.33477 -4.59134,6.54821 -0.0939,0.94402 0.0523,1.3705 0.72236,2.10756 1.35613,1.49167 2.07838,1.7295 6.25777,2.06073 2.18138,0.17289 5.37558,0.65167 7.09822,1.06402 1.72262,0.41233 3.69584,0.84798 4.38488,0.96811 3.18875,0.55597 7.13481,3.78383 8.76169,7.16701 2.0688,4.30224 0.85847,10.87322 -2.52604,13.71398 -0.63025,0.52901 -0.97019,1.05303 -0.86348,1.33113 0.10709,0.27905 -0.0102,0.45863 -0.30122,0.45863 -0.26249,0 -0.52947,0.15667 -0.59332,0.3483 -0.13566,0.40671 -4.55515,0.65945 -4.79329,0.27413 z m 114.42358,-0.25678 c 2.37755,-1.70798 2.97384,-2.4701 4.61667,-5.90051 2.26764,-4.73513 2.23836,-6.31797 -0.17685,-9.55915 -1.20888,-1.62229 -1.65557,-1.80041 -5.67884,-2.26421 -0.97072,-0.11194 -2.09826,-0.27906 -2.50566,-0.37146 -0.4074,-0.0924 -1.40049,-0.15563 -2.20688,-0.14065 -0.8064,0.0146 -1.55086,-0.10965 -1.65437,-0.27709 -0.10359,-0.16749 -0.37904,-0.23128 -0.61231,-0.14169 -0.66531,0.25531 -5.55226,-0.49917 -6.67662,-1.0308 -1.55028,-0.73298 -3.5412,-3.85748 -3.75055,-5.88606 -0.18912,-1.8317 0.32642,-5.35232 0.94859,-6.47893 0.22236,-0.40261 1.28244,-1.66647 2.35579,-2.80858 1.57068,-1.671307 2.23968,-2.150692 3.4281,-2.45639 0.81214,-0.208911 1.75848,-0.494594 2.10301,-0.634867 2.22471,-0.905756 3.41251,-1.115541 6.26415,-1.106386 2.75709,0.0083 3.35434,0.114223 4.98863,0.879521 2.27269,1.064337 4.17683,3.042902 4.55705,4.735222 0.22807,1.01505 0.15376,1.51478 -0.40489,2.72386 -0.90262,1.95341 -1.78148,2.48974 -3.40468,2.07773 -1.23787,-0.31421 -3.07385,-1.82694 -3.07385,-2.53265 0,-0.8254 -4.13812,-2.72467 -5.95094,-2.73129 -0.60294,-0.002 -1.87141,0.2257 -2.81887,0.50648 -0.94745,0.28077 -2.05007,0.58772 -2.45026,0.68211 -0.88454,0.20862 -3.87752,3.17876 -3.62116,3.59353 0.10066,0.1629 0.18164,0.81552 0.17975,1.45007 -0.005,1.40978 1.17257,3.08587 2.566,3.65494 0.53717,0.21938 2.31559,0.47768 3.95211,0.57401 6.96975,0.41033 11.84974,1.11615 13.50051,1.95264 1.83398,0.92937 4.06386,2.88813 4.98551,4.37938 0.72462,1.17248 1.46458,3.487 1.68447,5.26901 0.14543,1.17764 -0.93618,5.24224 -1.45638,5.47343 -0.1292,0.0574 -0.23535,0.26884 -0.23589,0.46981 -0.001,0.57003 -2.21057,3.70029 -3.62933,5.14292 l -1.28129,1.30282 -2.63381,-0.0125 c -2.5419,-0.0125 -2.60843,-0.0305 -1.90683,-0.53452 z M 75.206983,134.86104 c -0.379451,-0.077 -0.783713,-0.44804 -0.898365,-0.82473 -0.114661,-0.37667 -0.425048,-0.93151 -0.689766,-1.23297 -0.264719,-0.30147 -0.407189,-0.54813 -0.316597,-0.54813 0.09059,0 0.04175,-0.65814 -0.108522,-1.46253 -0.20271,-1.08504 -0.166364,-1.59033 0.140792,-1.95755 0.39483,-0.47205 1.461732,-5.20865 1.601798,-7.11131 0.03647,-0.49537 0.241542,-1.51387 0.455722,-2.2634 0.214183,-0.74951 0.322568,-1.42958 0.24086,-1.51131 -0.0817,-0.0818 -0.01456,-0.59602 0.149094,-1.1429 0.16372,-0.5469 0.360397,-1.34671 0.437082,-1.77737 0.07669,-0.43066 0.290093,-1.48773 0.474242,-2.34905 0.899439,-4.2069 1.096948,-5.37838 2.072684,-12.29338 0.103258,-0.732109 0.285178,-1.331127 0.404151,-1.331127 0.118972,0 0.125916,-0.704711 0.01544,-1.566026 -0.110473,-0.861316 -0.09762,-1.566027 0.02863,-1.566027 0.194748,0 0.477536,-1.146584 0.772499,-3.132075 0.454923,-3.062222 0.635705,-4.527321 0.895733,-7.258989 0.09311,-0.977828 0.234981,-2.316801 0.315344,-2.975469 0.08037,-0.658668 0.229581,-2.466082 0.331588,-4.016443 0.102018,-1.550381 0.245036,-3.17123 0.317824,-3.601888 0.07282,-0.430658 0.214746,-2.333383 0.31549,-4.228291 0.197499,-3.71505 1.139078,-8.991926 1.941304,-10.879546 0.279011,-0.656525 0.511658,-2.133378 0.530011,-3.364599 0.03111,-2.088668 0.06842,-2.194589 0.773491,-2.196857 0.455137,-0.0016 1.161713,0.450507 1.832453,1.172153 l 1.091676,1.174525 -0.19264,2.619089 c -0.105964,1.440485 -0.412109,3.681553 -0.680345,4.980164 -0.268235,1.298611 -0.54604,3.220769 -0.617352,4.271479 -0.163906,2.415067 -0.444913,5.289093 -0.591605,6.05079 -0.06211,0.322364 -0.209098,3.255431 -0.326696,6.517958 -0.117597,3.262505 -0.260006,6.006553 -0.316448,6.097889 -0.05648,0.09134 -0.20123,1.150599 -0.321759,2.35394 -0.120528,1.203321 -0.343255,2.892594 -0.494952,3.75391 -0.151698,0.861316 -0.425175,2.97547 -0.607726,4.6981 -0.18255,1.722632 -0.466139,3.55953 -0.630203,4.08196 -0.669793,2.13296 -1.568829,7.75846 -1.868086,11.68909 -0.175145,2.30033 -0.43789,4.41448 -0.583906,4.69811 -0.146016,0.28364 -0.454112,1.29089 -0.684651,2.23834 -0.230528,0.94745 -0.437146,1.7931 -0.459139,1.87923 -0.02198,0.0861 -0.202357,0.54812 -0.400803,1.0266 -0.340854,0.82189 -1.622543,5.5754 -1.622543,6.01767 0,0.46022 3.411653,-0.008 5.167925,-0.70975 1.033576,-0.41278 2.513486,-0.97163 3.288668,-1.24187 2.117992,-0.7384 6.173398,-3.63371 8.378292,-5.98159 1.076649,-1.14648 1.957536,-2.20006 1.957536,-2.34131 0,-0.14127 0.341451,-0.70548 0.75878,-1.25384 0.729121,-0.95804 1.089827,-1.78567 2.407758,-5.52452 0.548504,-1.55604 0.560344,-1.79703 0.132624,-2.6984 -0.681765,-1.4367 -2.848557,-3.48581 -4.134935,-3.91035 -1.773103,-0.58518 -6.434363,-0.18601 -9.028899,0.77332 -1.205091,0.44558 -2.191694,0.80985 -2.192449,0.80949 -6.2e-4,-3.1e-4 -0.03213,-0.43877 -0.06978,-0.97429 -0.03765,-0.53552 0.138543,-1.3739 0.391503,-1.86307 0.252961,-0.48916 0.459928,-1.15447 0.459928,-1.47843 0,-0.69751 0.662072,-1.08155 3.601881,-2.08923 1.73792,-0.59571 2.68801,-0.7303 4.582836,-0.64922 3.048174,0.13045 4.950508,0.95327 6.652485,2.87743 1.94273,2.19632 2.11272,2.50072 2.60724,4.6687 0.42672,1.87075 0.41165,2.20077 -0.23109,5.06158 -0.37815,1.68318 -1.00449,3.76506 -1.39184,4.62638 -0.38737,0.86132 -0.79372,1.94378 -0.90301,2.40545 -0.10934,0.46169 -0.374679,1.02546 -0.589752,1.25282 -0.215073,0.22739 -0.920905,1.22367 -1.568525,2.21398 -0.853742,1.30554 -2.016233,2.41953 -4.228285,4.05183 -1.677949,1.2382 -3.258952,2.45828 -3.513344,2.71128 -0.254381,0.253 -1.240984,0.79961 -2.192449,1.21466 -0.951454,0.41505 -2.293689,1.04861 -2.982748,1.40792 -0.689058,0.35932 -1.746126,0.76374 -2.349049,0.89873 -0.602935,0.13503 -1.660003,0.38162 -2.349062,0.54808 -1.631043,0.39401 -4.512037,0.64274 -5.388008,0.46519 z m 8.577439,-51.838024 c -0.09999,-0.249856 -0.174209,-0.1756 -0.189236,0.189124 -0.01353,0.330167 0.06042,0.515171 0.164515,0.41108 0.104047,-0.104025 0.115196,-0.374212 0.02469,-0.600308 z m 0.0034,-1.736259 c -0.07936,-0.304741 -0.149612,-0.131284 -0.155981,0.385551 -0.0068,0.516794 0.05862,0.766129 0.144392,0.554077 0.08579,-0.212051 0.09097,-0.634887 0.01161,-0.939628 z m 0.237325,-18.563462 0.175077,-2.34905 -0.612832,2.66226 c -0.337055,1.464224 -0.610126,3.226033 -0.606812,3.915077 l 0.0056,1.252837 0.431724,-1.566046 c 0.237449,-0.861316 0.51052,-2.623104 0.606812,-3.915078 z M 219.81576,129.77948 c -1.16865,-0.19891 -3.3046,-1.52246 -4.698,-2.91127 -1.73649,-1.73078 -2.59941,-7.27696 -1.88221,-12.09757 0.41222,-2.77086 2.21558,-7.30907 3.24192,-8.15842 0.28568,-0.23644 0.51941,-0.53583 0.51941,-0.66535 0,-0.91741 5.71472,-6.328604 7.95604,-7.533505 1.50294,-0.80795 2.20553,-0.992934 3.75849,-0.989585 1.05048,0.002 2.05092,0.04577 2.22319,0.09674 0.17227,0.05098 0.62651,-0.01456 1.00944,-0.144391 1.26309,-0.430096 3.99198,1.161645 5.19811,3.032021 2.78993,4.32643 1.39171,15.77553 -2.5161,20.60253 -3.07682,3.80054 -5.47998,6.01649 -7.30425,6.73519 -0.76917,0.30303 -1.46898,0.63499 -1.55511,0.73768 -0.15042,0.17935 -3.41422,1.21863 -4.38489,1.39629 -0.2584,0.0472 -0.96312,0.002 -1.56604,-0.10044 z m 2.81886,-5.06345 c 0.25841,-0.11984 0.89265,-0.406 1.40943,-0.63591 1.73865,-0.77347 5.67094,-3.39129 6.51186,-4.33506 1.3005,-1.4596 2.82622,-3.74532 3.97343,-5.95273 0.90087,-1.7334 1.05865,-2.36943 1.11362,-4.48952 0.0681,-2.6263 -0.333,-3.8827 -1.79555,-5.62408 -0.66383,-0.79038 -0.95488,-0.87352 -3.70913,-1.05959 -3.40419,-0.22995 -3.90402,-0.0678 -6.29888,2.04239 -0.80163,0.70638 -1.59127,1.28432 -1.75474,1.28432 -0.16353,0 -0.98482,0.88089 -1.82518,1.95753 -0.84036,1.07665 -1.79493,2.23945 -2.12128,2.58397 -0.32631,0.34452 -1.01378,1.51153 -1.52766,2.59334 -0.76215,1.6045 -0.93667,2.38366 -0.94707,4.22831 -0.0187,3.32934 0.50139,4.83007 2.2272,6.42575 1.31273,1.21375 1.59333,1.33837 2.86471,1.27236 0.77518,-0.0401 1.62085,-0.17124 1.87924,-0.29108 z m -110.40546,3.72941 c -0.86132,-0.33683 -1.89815,-0.96639 -2.30406,-1.39903 -0.66301,-0.70666 -0.7157,-0.96534 -0.51833,-2.54493 0.12082,-0.96707 0.37476,-2.11983 0.56431,-2.5617 0.18954,-0.44187 0.36272,-0.94433 0.38484,-1.1166 0.19677,-1.53233 1.73826,-5.80838 3.61313,-10.02262 0.15328,-0.34453 0.57151,-1.4016 0.92939,-2.34905 0.3579,-0.94746 1.0665,-2.54523 1.57468,-3.55059 0.50818,-1.00537 0.92709,-2.06245 0.93092,-2.34907 0.003,-0.2866 0.28258,-0.87344 0.61945,-1.3041 0.33686,-0.43068 0.61561,-1.16685 0.61945,-1.635954 l 0.007,-0.852932 -2.27075,0.131492 c -3.11818,0.180594 -5.29364,0.481549 -5.92634,0.820162 -0.77433,0.414412 -2.6377,0.347932 -3.00142,-0.107148 -0.39834,-0.498318 -0.2728,-1.920057 0.31114,-3.523576 0.4378,-1.202238 0.52457,-1.261576 2.14822,-1.469155 0.93059,-0.119008 2.60813,-0.362811 3.72784,-0.541823 3.35301,-0.536081 5.18816,-0.431428 6.4292,0.366639 2.47144,1.589245 2.1849,4.487484 -1.12436,11.372765 -1.19501,2.48637 -2.17275,4.71937 -2.17275,4.96219 0,0.24285 -0.42283,1.38394 -0.93963,2.53576 -0.51679,1.15182 -0.93962,2.28873 -0.93962,2.52648 0,0.23773 -0.3025,1.10547 -0.67225,1.92834 -1.00543,2.23765 -1.14942,2.62549 -1.53128,4.12494 -0.52439,2.059 -0.2312,2.13507 5.49221,1.42482 0.86132,-0.10698 1.6365,-0.20057 1.72263,-0.20834 0.0861,-0.008 0.60701,0.0913 1.15749,0.22022 0.77774,0.18205 1.04707,0.4445 1.20801,1.17725 0.13124,0.59758 0.0703,1.02755 -0.16632,1.17379 -0.2054,0.12692 -0.32873,0.28552 -0.27408,0.35239 0.22411,0.27427 -0.89217,1.41227 -1.7685,1.80292 -1.09912,0.48998 -1.73555,0.62267 -3.80234,0.79272 -0.83719,0.0689 -1.73359,0.19516 -1.99199,0.28067 -0.25839,0.0856 -1.17453,-0.12026 -2.03584,-0.45697 z m 86.10215,-0.11261 c -0.28416,-1.13211 0.46083,-4.98929 1.14794,-5.94375 0.82201,-1.1418 2.88172,-7.59775 3.24118,-10.15917 0.47989,-3.41962 0.27564,-4.25004 -1.43767,-5.84534 -2.56417,-2.38748 -4.11388,-2.55576 -9.1858,-0.99749 -1.25719,0.38624 -6.21561,2.84884 -6.99174,3.47245 -0.8806,0.70754 -2.81977,5.60991 -3.36088,8.49665 -0.23082,1.23134 -0.66501,2.38999 -2.76622,7.38196 -0.61635,1.46424 -1.12321,2.83575 -1.12634,3.0478 -0.005,0.21205 -0.38002,0.47949 -0.8375,0.5943 -1.21279,0.30439 -1.73991,-0.56198 -1.54848,-2.54511 0.16457,-1.70608 1.50356,-5.66007 2.75778,-8.14415 0.43486,-0.86131 0.96967,-2.34123 1.18844,-3.28868 0.21877,-0.94745 0.70593,-2.94634 1.08259,-4.44202 0.77696,-3.08528 0.68428,-3.4939 -1.08936,-4.80283 -1.03348,-0.76272 -1.2743,-0.80125 -4.69127,-0.75063 -5.14883,0.0764 -8.03232,0.48695 -9.95086,1.41726 -1.67247,0.81101 -3.20384,2.55066 -3.20384,3.63963 0,0.30454 -0.14105,0.5537 -0.3132,0.5537 -0.17228,0 -0.31321,0.2819 -0.31321,0.62642 0,0.348 -0.20881,0.62642 -0.46982,0.62642 -0.25838,0 -0.46981,0.12775 -0.46981,0.28388 0,0.52904 -1.23078,-0.0343 -1.42723,-0.65316 -0.24295,-0.7655 0.10156,-4.19847 0.53387,-5.32136 0.40271,-1.0458 -0.20639,-4.33198 -0.80293,-4.33198 -0.77562,0 -1.43579,-1.13193 -1.43579,-2.461858 0,-1.400621 0.48083,-1.868542 1.48773,-1.447851 0.30148,0.125875 1.33834,0.257992 2.30415,0.293403 2.43444,0.08926 3.83498,1.069581 3.66074,2.562286 -0.0676,0.57971 -0.10754,1.05402 -0.0886,1.05402 0.0187,0 0.90103,-0.33967 1.96034,-0.75481 2.48653,-0.974458 7.03279,-1.563364 9.95506,-1.289519 2.4039,0.225264 5.47628,1.440799 6.47006,2.559769 0.71537,0.80545 1.56624,2.88195 1.33457,3.25683 -0.27853,0.45065 0.27043,0.35977 0.96271,-0.15937 4.67612,-3.50654 4.85565,-3.60628 7.90839,-4.39315 4.60545,-1.187139 4.95052,-1.186099 7.73738,0.0231 1.41902,0.61572 4.06066,3.54284 4.64048,5.14197 0.58965,1.62619 0.71779,4.70357 0.25784,6.19163 -0.17394,0.56302 -0.32936,1.0901 -0.34519,1.17124 -0.0167,0.0811 -0.0797,0.32517 -0.14168,0.5423 -0.0622,0.21715 -0.25929,1.2658 -0.43815,2.33037 -0.30574,1.81981 -2.23752,7.13103 -4.04314,11.11629 -0.89304,1.97103 -1.84624,2.56821 -2.15236,1.34846 z M 115.43293,87.410383 c -1.52489,-1.524894 -1.42106,-7.958608 0.14363,-8.899923 0.3155,-0.189748 0.31109,-0.124209 -0.0192,0.282792 -0.71562,0.882226 -0.0605,0.596376 1.29777,-0.56629 0.70438,-0.60293 1.52567,-1.096233 1.8251,-1.096233 0.29944,0 0.74998,-0.07885 1.00121,-0.175185 0.64635,-0.248025 0.97598,1.300878 0.51413,2.415878 -0.20309,0.490309 -0.45788,0.907547 -0.56617,0.927188 -0.10833,0.01872 -0.6173,0.08426 -1.1311,0.143351 -1.641,0.189332 -2.41123,2.143116 -0.98586,2.500848 1.20145,0.301559 6.2306,-0.687566 6.68994,-1.315754 0.21892,-0.299394 0.40615,-0.411703 0.41608,-0.249586 0.0101,0.162078 0.3543,-0.44518 0.76528,-1.349563 0.84099,-1.850607 1.37265,-2.031076 2.34435,-0.795757 1.59229,2.024252 -0.22823,5.509234 -3.89381,7.453862 -1.87283,0.993557 -2.53549,1.172028 -4.90046,1.319791 -2.59576,0.162284 -2.77373,0.131908 -3.50105,-0.595398 z M 83.9084,58.468815 c 0.01499,-0.364871 0.08928,-0.439085 0.189224,-0.189333 0.09052,0.226097 0.07936,0.496238 -0.02469,0.600308 -0.104048,0.104025 -0.178099,-0.08094 -0.164504,-0.41108 z m -0.229863,-1.240231 c -0.102019,-0.265834 -0.11549,-0.553307 -0.02999,-0.638839 0.08556,-0.08552 0.230686,0.131908 0.32257,0.483317 0.195188,0.746343 -0.02164,0.861585 -0.292629,0.155419 z"
       style="fill:#000000;stroke-width:0.313208" />
  </g>
</svg>
